<?xml version="1.0" encoding="UTF-8"?>
<svg width="242px" height="35px" viewBox="0 0 242 35" version="1.1" xmlns="http://www.w3.org/2000/svg" xmlns:xlink="http://www.w3.org/1999/xlink">
    <!-- Generator: Sketch 50.2 (55047) - http://www.bohemiancoding.com/sketch -->
    <title>Brand</title>
    <desc>Created with Sketch.</desc>
    <defs></defs>
    <g id="Symbols" stroke="none" stroke-width="1" fill="none" fill-rule="evenodd">
        <g id="Modern-/-Header-Light" transform="translate(-40.000000, -30.000000)">
            <g id="Brand" transform="translate(199.000000, 50.500000) rotate(-360.000000) translate(-199.000000, -50.500000) translate(40.000000, 30.000000)">
                <text id="Product-Name" font-family="LibreFranklin-Black, Libre Franklin" font-size="12" font-weight="700" letter-spacing="1" fill="#3CBDE5">
                    <tspan x="174" y="24">PRODUC</tspan>
                    <tspan x="233.832" y="24">T</tspan>
                </text>
                <g id="Logo" fill="#333333">
                    <g id="A57-Logo">
                        <g id="57" transform="translate(110.080645, 3.614458)">
                            <path d="M1.73144454,16.0763765 L1.19240134,16.0763765 C1.79650766,10.7126351 2.39810235,5.37217941 3.00304588,0.00195647468 L19.3181025,0.00195647468 C18.8912454,1.64899608 18.476468,3.24898427 18.0417171,4.92615119 L3.03820867,4.92615119 C2.66062727,8.23943506 2.29213557,11.4712192 1.90713889,14.8483585 C2.12768374,14.6579923 2.25230833,14.5581281 2.36844122,14.4491417 C4.04668708,12.8747197 5.89404923,11.5523588 8.1839363,11.0922872 C10.9781822,10.5310311 13.6692121,10.8383056 16.0556174,12.5500409 C17.5572121,13.6270622 18.4230062,15.1545528 18.8294115,16.9391458 C19.4374646,19.6096737 19.255551,22.2144257 17.9777304,24.667941 C16.6221689,27.2707725 14.3923217,28.8282704 11.6789264,29.7536949 C9.58470707,30.4679882 7.45676021,30.7839048 5.28408245,30.1327468 C2.6631389,29.3471562 1.01048772,27.544919 -2.3920266e-05,25.0111042 C0.174115616,24.8787121 0.328999339,24.7608435 0.529929573,24.6080464 C0.807404659,25.105087 1.05294619,25.5693597 1.32097277,26.0201891 C2.31318541,27.6895541 3.60356416,29.0420422 5.54672697,29.5077552 C8.85047451,30.2994673 12.0406008,29.1527091 13.1299297,25.0654774 C13.8724148,22.2800816 13.8878433,19.441873 13.338634,16.6247895 C12.6890792,13.2932612 10.0891855,12.3579943 7.5636838,12.5675652 C5.97298611,12.6995972 4.66909241,13.5030721 3.47726515,14.5026747 C2.8794977,15.0039163 2.31629504,15.546808 1.73144454,16.0763765" id="Fill-1"></path>
                            <path d="M38.6063817,0.0023049186 C38.2275148,0.75912613 37.8959316,1.45487888 37.5354528,2.13542392 C35.9434475,5.14132292 34.3980096,8.16741966 33.305588,11.3992957 C32.2169874,14.6200036 31.2793127,17.8837209 30.5470117,21.2024472 C29.9521441,23.8980139 29.4025303,26.6034418 28.8305881,29.3039985 C28.7991851,29.4525113 28.7474834,29.5969845 28.7015131,29.7561903 L21.4998176,29.7561903 C21.5646537,29.5344904 21.6022657,29.344988 21.6739077,29.1692677 C22.9536732,26.0330338 24.4323646,22.9929175 26.0605491,20.0199289 C28.8396628,14.9454249 32.0272554,10.1264817 35.2455347,5.32512236 C35.3285201,5.20108447 35.4018338,5.07074964 35.5342521,4.85415858 L19.8001105,4.85415858 C20.2306791,3.18606285 20.6392775,1.60339168 21.0525326,0.0023049186 L38.6063817,0.0023049186 Z" id="Fill-4"></path>
                        </g>
                        <g id="Atlantic">
                            <path d="M19.7311195,19.9793722 L11.8328586,19.9793722 L21.205562,6.38189101 L21.2898876,6.38189101 L19.7311195,19.9793722 Z M24.9223484,2.84217094e-13 L1.9854199,33.2841906 L0.126667852,33.2841906 L0,33.784481 L5.74490739,33.784481 L5.87193407,33.2841906 L2.66181905,33.2841906 L11.459314,20.5211172 L19.6690415,20.5211172 L18.2060816,33.2841906 L15.502638,33.2841906 L15.3759701,33.784481 L23.7399955,33.784481 L23.8666634,33.2841906 L21.5012399,33.2841906 L25.3030696,2.84217094e-13 L24.9223484,2.84217094e-13 Z" id="Fill-7"></path>
                            <path d="M29.4845441,32.9693021 C28.9355304,32.9693021 28.5975103,32.6351847 28.5975103,31.9673041 C28.5975103,31.633541 28.6818359,31.1332506 28.8088626,30.6744149 L32.7797024,15.4084724 L36.0321596,15.4084724 L36.1591863,14.9081821 L32.9063702,14.9081821 L34.5957534,8.48483641 L31.5550072,8.48483641 L29.8652653,14.9081821 L27.3728151,14.9081821 L27.2457885,15.4084724 L29.7385974,15.4084724 L26.0634356,29.6309623 C25.8517244,30.4239154 25.5987476,31.2172229 25.5987476,32.2599669 C25.5987476,33.2612563 26.2324456,34.303646 27.964171,34.303646 C31.174286,34.303646 32.5683501,30.4239154 32.8220446,29.8821704 L32.39934,29.7152888 C32.1036621,30.3824608 30.8786081,32.9693021 29.4845441,32.9693021" id="Fill-5"></path>
                            <path d="M38.1441756,32.9693021 C37.5108363,32.9693021 37.2991252,32.6351847 37.2991252,31.9673041 C37.2991252,31.5506317 37.3414674,31.1750596 37.4684941,30.6744149 L45.3251304,0.810410507 L39.4535552,0.810410507 L39.3268873,1.31070087 L42.073032,1.31070087 L34.7223494,29.6309623 C34.511356,30.4657244 34.2576614,31.3415869 34.2576614,32.2599669 C34.2576614,33.3020023 34.8917184,34.303646 36.6234437,34.303646 C39.7492331,34.303646 41.269965,30.4657244 41.4809585,29.8821704 L41.0589715,29.7152888 C40.7632936,30.4239154 39.4962562,32.9693021 38.1441756,32.9693021" id="Fill-10"></path>
                            <path d="M51.703413,27.9217195 C50.7320535,30.966688 49.2109628,33.3023212 47.3952707,33.3023212 C46.1275157,33.3023212 45.5361598,32.551177 45.5788608,30.8834243 C45.7055287,27.1709297 47.9023009,20.5392478 48.4089723,19.0791227 C49.2536639,16.6191255 50.4367344,15.1997465 51.9571075,15.1997465 C53.3511715,15.1997465 54.026853,16.4100807 53.9848696,17.7865878 C53.9009028,19.8299126 52.9288257,23.917625 51.703413,27.9217195 M54.1115375,30.6747338 L58.2086863,14.9081466 L55.1675814,14.9081466 L54.6609099,16.9518257 C54.5335244,16.5351533 54.1542385,14.4918285 51.4500773,14.4918285 C47.8599587,14.4918285 46.0855323,17.4106614 44.9455216,20.3302029 C44.2691224,22.0826365 42.8750584,26.4615945 42.7907328,29.4232993 C42.6644238,32.5936946 44.227139,34.3036105 46.6768881,34.3036105 C49.0003282,34.3036105 50.4787178,32.009432 51.0277315,30.8412611 C50.9857481,31.0081426 50.9010636,31.6338599 50.9010636,32.0923413 C50.8587214,33.2612208 51.703413,34.3036105 53.3511715,34.3036105 C56.5189443,34.3036105 57.9130084,30.299516 58.0823773,29.882135 L57.6596727,29.7152534 C57.3639947,30.3824253 56.2236252,32.9692667 54.7452356,32.9692667 C54.1115375,32.9692667 53.8578429,32.551177 53.9009028,31.8425504 C53.9009028,31.5505963 53.9848696,31.1332152 54.1115375,30.6747338" id="Fill-12"></path>
                            <path d="M71.4306212,32.9693021 C70.6698964,32.9693021 70.5008863,32.5512124 70.5008863,32.0094674 C70.5008863,31.5920864 70.5855708,31.1332506 70.7125974,30.6744149 L73.4156822,20.3302384 C73.6690179,19.3711123 73.9223536,18.5381217 73.9223536,17.4106969 C73.9223536,16.1596166 73.0780209,14.5747733 70.6698964,14.5747733 C67.9244694,14.5747733 66.4457209,16.7849796 65.854365,17.7441057 L66.5727476,14.9081821 L60.7854979,14.9081821 L60.6168467,15.4084724 L63.3622737,15.4084724 L58.5467423,33.9277196 L61.5882061,33.9277196 L64.8822879,21.3729824 C65.6433715,18.5381217 67.417798,15.6175173 69.4452013,15.6175173 C70.6698964,15.6175173 71.0498999,16.4101161 71.0498999,17.160906 C71.0498999,17.8287865 70.8389065,18.5381217 70.627913,19.3711123 L67.9668116,29.6309623 C67.7978015,30.2995515 67.5021236,31.4670138 67.5021236,32.2599669 C67.5021236,33.3859746 68.2624895,34.303646 69.9522315,34.303646 C72.9929776,34.303646 74.5140683,30.3410061 74.7257795,29.8821704 L74.3030748,29.7152888 C73.8803702,30.5493423 72.7400007,32.9693021 71.4306212,32.9693021" id="Fill-18"></path>
                            <path d="M91.7489699,14.9083238 L83.2155756,14.9083238 L84.8633342,8.48497813 L81.8222292,8.48497813 L80.1744707,14.9083238 L77.3863426,14.9083238 L77.2600336,15.4086142 L80.0478028,15.4086142 L76.372641,29.631104 C76.1616475,30.4240572 75.9079529,31.258465 75.9079529,32.1754278 C75.9079529,33.302144 76.6686777,34.3034334 78.3580609,34.3034334 C81.3995246,34.3034334 82.9202565,30.3411478 83.0892666,29.8823121 L82.666562,29.7154306 C82.3701664,30.3826025 81.1878135,32.9694438 79.7517661,32.9694438 C79.1604102,32.9694438 78.9074333,32.6349721 78.9074333,31.9670915 C78.9074333,31.5507734 78.9914001,31.1333924 79.1184268,30.6745567 L83.0472832,15.4086142 L88.6231805,15.4086142 L84.9060352,29.631104 C84.6943241,30.3826025 84.4413472,31.3009826 84.4413472,32.0925184 C84.4413472,33.261398 85.2009955,34.3034334 86.9334385,34.3034334 C89.9745435,34.3034334 91.4945577,30.3411478 91.6642855,29.8823121 L91.2415808,29.7154306 C90.9459029,30.3411478 89.720849,32.9694438 88.3687683,32.9694438 C87.60912,32.9694438 87.4820933,32.5513542 87.4820933,31.9256369 C87.4820933,31.5093188 87.566419,31.1333924 87.6930868,30.6745567 L91.7489699,14.9083238 Z" id="Fill-14"></path>
                            <path d="M91.6221226,7.8179125 C90.6080622,7.8179125 89.8896796,8.61015702 89.8896796,9.73687329 C89.8896796,10.6538361 90.5230189,11.4053346 91.4523949,11.4053346 C92.424472,11.4053346 93.1844791,10.6123814 93.1844791,9.52782844 C93.1844791,8.56870236 92.550781,7.8179125 91.6221226,7.8179125" id="Fill-20"></path>
                            <path d="M101.590918,14.4917577 C97.9584577,14.4917577 96.0570046,17.0357271 94.9589773,20.2886774 C94.2413124,22.3745198 93.1009429,25.752897 93.1009429,29.506492 C93.1009429,31.4261614 93.9876179,34.3035397 97.831431,34.3035397 C101.843895,34.3035397 103.575621,29.3396105 103.829315,28.7557022 L103.28066,28.5059113 C102.731288,29.7984462 101.253257,33.2189867 98.6761225,33.2189867 C97.028364,33.2189867 96.1409713,31.9671978 96.1409713,29.6312103 C96.1409713,26.2531874 97.1973741,22.7504462 98.1267501,19.9967233 C99.2674784,16.6190547 99.985861,15.0335027 101.675603,15.0335027 C102.773271,15.0335027 103.449671,15.5345017 103.449671,16.2016736 C103.449671,17.1607997 102.815972,17.6196354 102.815972,18.4951435 C102.815972,19.2880967 103.407328,19.8723593 104.168053,19.8723593 C105.09707,19.8723593 105.688067,19.1212151 105.688067,17.9122982 C105.688067,16.6598007 104.970402,14.4917577 101.590918,14.4917577" id="Fill-16"></path>
                        </g>
                    </g>
                </g>
            </g>
        </g>
    </g>
</svg>